<?xml version="1.0" encoding="utf-8"?>
<!-- Generator: Adobe Illustrator 18.0.0, SVG Export Plug-In . SVG Version: 6.00 Build 0)  -->
<!DOCTYPE svg PUBLIC "-//W3C//DTD SVG 1.1//EN" "http://www.w3.org/Graphics/SVG/1.1/DTD/svg11.dtd">
<svg version="1.1" id="Layer_1" xmlns="http://www.w3.org/2000/svg" xmlns:xlink="http://www.w3.org/1999/xlink" x="0px" y="0px"
	 viewBox="0 0 256 256" enable-background="new 0 0 256 256" xml:space="preserve">
<rect fill="#B6E9FF" width="256" height="256"/>
<path fill="#FFFFFF" d="M221.2,190.7L162.4,132c-3.6-3.6-9.6-3.6-13.2,0l-4.4,4.4l-35.8-35.8l58.8-58.8h-62.3L77.8,69.4L75,66.6
	H61.8v13.2l2.7,2.7l-40.1,40.1l31.2,31.2l40.1-40.1l35.8,35.8l-4.4,4.4c-3.6,3.6-3.6,9.6,0,13.2l58.7,58.7c3.6,3.6,9.6,3.6,13.2,0
	l22-22C224.8,200.3,224.8,194.3,221.2,190.7z"/>
</svg>
